#!OML:ASF F:\twosubjects\two\Thursday\Session 1\Rory.ASF
:FULLY-SPECIFIED
:DEGREES
747
root 11.5258 18.9302 10.1771 -151.49 -81.8927 154.013
lowerback -6.49005 -1.62279 -5.28755
upperback 0.625801 -1.69474 -2.30603
thorax 4.37885 -0.95778 0.397477
lowerneck 5.00136 -7.56827 -7.22608
upperneck 14.725 -12.4866 11.0153
head 4.71654 -6.37117 4.16557
rclavicle -2.14936e-014 -1.19271e-015
rhumerus -1.21032 23.0199 -64.2596
rradius 133.913
rwrist 1.86431
rhand -30.5426 24.5493
rfingers 7.12502
rthumb -3.84146 -5.39581
lclavicle -2.14936e-014 -1.19271e-015
lhumerus -33.0316 -15.1278 85.9204
lradius 123.714
lwrist -9.39837
lhand -12.5617 35.3374
lfingers 7.12502
lthumb 13.5156 64.8788
rfemur -1.50471 11.4811 11.5832
rtibia 8.91648
rfoot -5.95498 -9.71493
rtoes -15.8204
lfemur 0.874573 -5.99881 -19.8238
ltibia 6.9365
lfoot -10.4251 12.1145
ltoes 18.5464
748
root 11.5282 18.9287 10.1778 -151.842 -81.9337 154.378
lowerback -6.68977 -1.53799 -5.61134
upperback 0.843249 -1.53507 -2.02615
thorax 4.72911 -0.897155 0.875086
lowerneck 4.65273 -7.70353 -7.42769
upperneck 15.3826 -12.7709 11.0955
head 5.02213 -6.49949 4.18061
rclavicle -1.83752e-014 2.38542e-015
rhumerus -1.66226 22.9906 -64.1071
rradius 133.903
rwrist 1.82338
rhand -30.5174 24.4136
rfingers 7.12502
rthumb -3.81706 -5.53195
lclavicle -1.83752e-014 2.38542e-015
lhumerus -32.29 -15.27 86.4773
lradius 123.92
lwrist -8.30067
lhand -12.2251 35.5536
lfingers 7.12502
lthumb 13.8401 65.0731
rfemur -1.22056 11.4442 11.6438
rtibia 8.35687
rfoot -5.81961 -9.72257
rtoes -16.3348
lfemur 0.574709 -6.01062 -19.7669
ltibia 7.40554
lfoot -10.4892 12.3145
ltoes 16.4081
749
root 11.5317 18.9298 10.1792 -152.266 -82.0995 154.771
lowerback -6.73107 -1.44446 -5.36209
upperback 1.00581 -1.41629 -2.12354
thorax 4.90656 -0.836442 0.643681
lowerneck 4.43574 -7.80831 -7.17504
upperneck 16.1718 -13.0816 11.2938
head 5.3299 -6.62383 4.1639
rclavicle -1.4474e-014 -1.74931e-014
rhumerus -2.47062 23.1519 -64.7483
rradius 134.009
rwrist 1.71676
rhand -30.253 24.7456
rfingers 7.12502
rthumb -3.56183 -5.20435
lclavicle -1.4474e-014 -1.74931e-014
lhumerus -31.8279 -15.8564 86.4071
lradius 124.193
lwrist -7.28671
lhand -12.2862 35.7211
lfingers 7.12502
lthumb 13.7812 65.2446
rfemur -0.993047 11.3058 11.7778
rtibia 8.01147
rfoot -5.74225 -9.78851
rtoes -16.7499
lfemur 0.49157 -6.13156 -19.6408
ltibia 7.61976
lfoot -10.7194 12.3723
ltoes 15.8285
750
root 11.5347 18.9332 10.1797 -153.36 -82.3399 155.767
lowerback -6.54769 -1.46939 -5.06767
upperback 1.04451 -1.48425 -2.1054
thorax 4.83871 -0.860684 0.495074
lowerneck 4.43993 -7.72407 -7.05484
upperneck 16.9351 -13.1102 11.2814
head 5.56116 -6.63499 4.13205
rclavicle -3.24267e-015 3.18055e-015
rhumerus -3.34174 23.6826 -65.5648
rradius 134.069
rwrist 1.59723
rhand -31.0985 24.0844
rfingers 7.12502
rthumb -4.37824 -5.85039
lclavicle -3.24267e-015 3.18055e-015
lhumerus -31.7729 -16.2205 86.4078
lradius 124.493
lwrist -6.59659
lhand -12.7339 36.0526
lfingers 7.12502
lthumb 13.3497 65.6049
rfemur -0.781207 11.147 12.0581
rtibia 7.8899
rfoot -5.86738 -9.78197
rtoes -16.5806
lfemur 0.602133 -6.28461 -19.372
ltibia 7.6593
lfoot -10.8841 12.2141
ltoes 17.686
751
root 11.5386 18.9292 10.1774 -153.668 -82.4522 156.019
lowerback -6.44698 -1.57139 -5.05795
upperback 1.08139 -1.62826 -2.01462
thorax 4.82955 -0.932252 0.570183
lowerneck 4.27755 -7.51255 -7.23063
upperneck 17.802 -12.9959 11.4104
head 5.86674 -6.57901 4.19335
rclavicle 1.2188e-014 -5.96354e-015
rhumerus -4.0599 24.4542 -66.3037
rradius 133.97
rwrist 1.34351
rhand -34.3053 22.7717
rfingers 7.12502
rthumb -7.47427 -7.07625
lclavicle 1.2188e-014 -5.96354e-015
lhumerus -31.6116 -16.1894 86.4981
lradius 124.775
lwrist -6.09357
lhand -12.7542 36.1404
lfingers 7.12502
lthumb 13.3301 65.6941
rfemur -0.643379 11.0469 12.1677
rtibia 7.76914
rfoot -5.85471 -9.71934
rtoes -16.6581
lfemur 0.568782 -6.37082 -19.2639
ltibia 7.69471
lfoot -10.6002 12.29
ltoes 17.7577
752
root 11.5429 18.9253 10.1751 -152.642 -82.4231 155.038
lowerback -6.45662 -1.63043 -5.23985
upperback 1.09234 -1.69242 -1.98625
thorax 4.85649 -0.970059 0.69333
lowerneck 4.06829 -7.40951 -7.25291
upperneck 18.6864 -13.0137 11.4141
head 6.18527 -6.58175 4.18037
rclavicle 7.01958e-015 2.38542e-014
rhumerus -4.57585 24.8716 -66.6109
rradius 133.838
rwrist 0.79261
rhand -41.9321 19.1846
rfingers 7.12502
rthumb -14.8298 -10.2647
lclavicle 7.01958e-015 2.38542e-014
lhumerus -31.4144 -16.2148 86.5777
lradius 125.102
lwrist -5.45172
lhand -12.5186 35.9608
lfingers 7.12502
lthumb 13.5572 65.4994
rfemur -0.707104 10.983 12.0106
rtibia 7.74941
rfoot -5.73945 -9.72981
rtoes -16.4917
lfemur 0.467321 -6.40253 -19.3862
ltibia 7.64639
lfoot -10.422 12.3741
ltoes 17.1895
753
root 11.5478 18.9254 10.1712 -151.657 -82.4183 154.134
lowerback -6.50615 -1.52834 -5.328
upperback 1.10491 -1.54247 -2.11445
thorax 4.88887 -0.898779 0.623932
lowerneck 3.99984 -7.5165 -6.87561
upperneck 19.3715 -13.3099 11.4116
head 6.42326 -6.70209 4.08955
rclavicle 1.51822e-014 1.51076e-014
rhumerus -5.39751 24.9163 -67.1442
rradius 133.74
rwrist 0.826675
rhand -32.7829 23.814
rfingers 7.12502
rthumb -6.00461 -6.08091
lclavicle 1.51822e-014 1.51076e-014
lhumerus -31.1975 -16.8521 86.4638
lradius 125.431
lwrist -4.58402
lhand -12.4011 35.8133
lfingers 7.12502
lthumb 13.6705 65.3444
rfemur -0.881413 10.8962 11.895
rtibia 7.88522
rfoot -5.75356 -9.79059
rtoes -16.2854
lfemur 0.408338 -6.4531 -19.4696
ltibia 7.48526
lfoot -10.3595 12.499
ltoes 16.8888
754
root 11.5562 18.9259 10.1638 -151.624 -82.5036 154.162
lowerback -6.53292 -1.35378 -5.26825
upperback 1.14338 -1.30684 -2.28222
thorax 4.92654 -0.781065 0.440651
lowerneck 3.93542 -7.56198 -6.63751
upperneck 20.0774 -13.6327 11.8661
head 6.71003 -6.82128 4.1668
rclavicle -4.55714e-014 -3.33958e-014
rhumerus -6.55452 25.1917 -68.0269
rradius 133.638
rwrist 1.68539
rhand -32.1635 23.9405
rfingers 7.12502
rthumb -5.40663 -5.9705
lclavicle -4.55714e-014 -3.33958e-014
lhumerus -30.8437 -17.757 86.2978
lradius 125.659
lwrist -3.74091
lhand -12.2928 35.9995
lfingers 7.12502
lthumb 13.7748 65.5235
rfemur -1.01386 10.7929 11.9846
rtibia 7.97792
rfoot -5.78194 -9.75306
rtoes -16.6911
lfemur 0.344868 -6.52552 -19.3751
ltibia 7.38464
lfoot -10.3176 12.6313
ltoes 15.8781
755
root 11.5615 18.9262 10.1579 -151.96 -82.5589 154.506
lowerback -6.50468 -1.17375 -5.11326
upperback 1.16746 -1.07609 -2.4539
thorax 4.91783 -0.661885 0.201254
lowerneck 3.81959 -7.58924 -6.36197
upperneck 20.9419 -13.9453 12.1873
head 7.04959 -6.93374 4.19284
rclavicle -1.44119e-015 3.26007e-014
rhumerus -7.72322 25.2984 -68.9691
rradius 133.524
rwrist 1.74563
rhand -33.5662 23.0728
rfingers 7.12502
rthumb -6.76082 -6.79923
lclavicle -1.44119e-015 3.26007e-014
lhumerus -30.4918 -18.6211 86.2026
lradius 125.837
lwrist -3.10678
lhand -12.1029 36.2099
lfingers 7.12502
lthumb 13.9579 65.7214
rfemur -1.01658 10.7422 12.0882
rtibia 7.95633
rfoot -5.79086 -9.61142
rtoes -16.2506
lfemur 0.303442 -6.55297 -19.2793
ltibia 7.41113
lfoot -10.2119 12.6169
ltoes 14.7537
756
root 11.5632 18.9267 10.1566 -151.303 -82.5478 153.827
lowerback -6.41974 -1.03677 -5.00996
upperback 1.13721 -0.90517 -2.66708
thorax 4.82524 -0.571838 -0.057202
lowerneck 3.71358 -7.65783 -5.9274
upperneck 21.9127 -14.2799 12.1719
head 7.39613 -7.06052 4.08096
rclavicle 6.60959e-015 -2.06736e-014
rhumerus -9.04178 25.1728 -70.1081
rradius 133.425
rwrist 1.11563
rhand -32.5429 24.1305
rfingers 7.12502
rthumb -5.77288 -5.7709
lclavicle 6.60959e-015 -2.06736e-014
lhumerus -30.2315 -19.3904 86.0816
lradius 126.043
lwrist -2.54275
lhand -11.7826 36.3248
lfingers 7.12502
lthumb 14.2665 65.8148
rfemur -0.946133 10.6886 12.0005
rtibia 7.87393
rfoot -5.68343 -9.5395
rtoes -15.863
lfemur 0.279664 -6.58509 -19.354
ltibia 7.45885
lfoot -10.1068 12.5676
ltoes 14.8197
757
root 11.5681 18.929 10.1564 -150.501 -82.5843 153.032
lowerback -6.36831 -0.946332 -4.95557
upperback 1.13507 -0.789942 -2.81895
thorax 4.78655 -0.512287 -0.232209
lowerneck 3.6049 -7.64643 -5.65641
upperneck 22.6987 -14.4892 12.2778
head 7.69135 -7.12923 4.04629
rclavicle 2.13197e-014 1.03368e-014
rhumerus -10.3933 25.3216 -71.1835
rradius 133.378
rwrist 1.11632
rhand -32.1799 24.5869
rfingers 7.12502
rthumb -5.42241 -5.32371
lclavicle 2.13197e-014 1.03368e-014
lhumerus -29.8239 -20.061 85.9423
lradius 126.214
lwrist -1.95364
lhand -11.6078 36.5658
lfingers 7.12502
lthumb 14.4349 66.0438
rfemur -0.919378 10.5813 11.9143
rtibia 7.77323
rfoot -5.59501 -9.59557
rtoes -16.9402
lfemur 0.238477 -6.66679 -19.3989
ltibia 7.47388
lfoot -10.2439 12.5058
ltoes 15.3127
758
root 11.5737 18.9307 10.1533 -150.37 -82.7251 152.956
lowerback -6.35356 -0.928622 -4.88938
upperback 1.12128 -0.772945 -2.82134
thorax 4.76205 -0.501329 -0.269214
lowerneck 3.48712 -7.50144 -5.67478
upperneck 23.4412 -14.523 12.5073
head 7.98647 -7.12601 4.1157
rclavicle 6.28657e-015 6.36111e-015
rhumerus -11.5689 25.7207 -72.1469
rradius 133.222
rwrist 1.41004
rhand -33.1114 24.1372
rfingers 7.12502
rthumb -6.32178 -5.74851
lclavicle 6.28657e-015 6.36111e-015
lhumerus -29.4487 -20.5093 85.896
lradius 126.415
lwrist -1.38683
lhand -11.6818 36.8208
lfingers 7.12502
lthumb 14.3636 66.3039
rfemur -0.948415 10.424 11.9738
rtibia 7.69732
rfoot -5.78324 -9.59328
rtoes -16.9917
lfemur 0.165054 -6.79322 -19.3038
ltibia 7.45489
lfoot -10.4142 12.3872
ltoes 17.1717
